<svg width="15" height="17" viewBox="0 0 15 17" fill="none" xmlns="http://www.w3.org/2000/svg">
<path d="M10 0H2C0.89543 0 0 0.895431 0 2V14C0 15.1046 0.89543 16 2 16H6.25716C6.00353 15.6929 5.78261 15.3578 5.59971 15H2C1.44772 15 1 14.5523 1 14V2C1 1.44772 1.44772 1 2 1L10 1C10.5523 1 11 1.44771 11 2V7.02242C11.3434 7.05337 11.6777 7.11588 12 7.20703V2C12 0.895431 11.1046 0 10 0ZM9 4.5C9 4.74546 8.82312 4.94961 8.58988 4.99194L8.5 5H3.5C3.22386 5 3 4.77614 3 4.5C3 4.25454 3.17688 4.05039 3.41012 4.00806L3.5 4H8.5C8.77614 4 9 4.22386 9 4.5ZM10.5 17C12.9853 17 15 14.9853 15 12.5C15 10.0147 12.9853 8 10.5 8C8.01472 8 6 10.0147 6 12.5C6 14.9853 8.01472 17 10.5 17ZM10.5 10C10.7761 10 11 10.2239 11 10.5V12H12.5C12.7761 12 13 12.2239 13 12.5C13 12.7761 12.7761 13 12.5 13H11V14.5C11 14.7761 10.7761 15 10.5 15C10.2239 15 10 14.7761 10 14.5V13H8.5C8.22386 13 8 12.7761 8 12.5C8 12.2239 8.22386 12 8.5 12H10V10.5C10 10.2239 10.2239 10 10.5 10ZM3.5 8H7.33692C6.93379 8.28389 6.57052 8.62057 6.25716 9H3.5C3.22386 9 3 8.77614 3 8.5C3 8.22386 3.22386 8 3.5 8Z" fill="#60CDFF"/>
</svg>
