<svg width="19" height="19" viewBox="0 0 19 19" fill="none" xmlns="http://www.w3.org/2000/svg">
<path d="M13.3673 0.65901L18.3358 5.62754C19.2145 6.50621 19.2145 7.93084 18.3358 8.80952L9.654 17.49L15.7519 17.4902C16.1316 17.4902 16.4454 17.7724 16.495 18.1384L16.5019 18.2402C16.5019 18.6199 16.2197 18.9337 15.8537 18.9833L15.7519 18.9902L7.34187 18.9914C6.72566 19.0251 6.09826 18.8065 5.62754 18.3358L0.65901 13.3673C-0.21967 12.4886 -0.21967 11.064 0.65901 10.1853L10.1853 0.65901C11.064 -0.21967 12.4886 -0.21967 13.3673 0.65901ZM3.206 9.758L1.71967 11.246C1.42678 11.5388 1.42678 12.0137 1.71967 12.3066L6.6882 17.2751C6.83464 17.4216 7.02658 17.4948 7.21853 17.4948L7.2474 17.4902L7.2859 17.4918C7.45481 17.4767 7.61956 17.4044 7.74886 17.2751L9.235 15.788L3.206 9.758ZM11.246 1.71967L4.267 8.697L10.296 14.727L17.2751 7.74886C17.568 7.45596 17.568 6.98109 17.2751 6.6882L12.3066 1.71967C12.0137 1.42678 11.5388 1.42678 11.246 1.71967Z" fill="#60CDFF"/>
</svg>
