<svg width="16" height="20" viewBox="0 0 16 20" fill="none" xmlns="http://www.w3.org/2000/svg">
<g clip-path="url(#clip0_43_20559)">
<path d="M11 15C11.5523 15 12 15.4477 12 16C12 16.5523 11.5523 17 11 17H5C4.44772 17 4 16.5523 4 16C4 15.4477 4.44772 15 5 15H11ZM15 9C15.5523 9 16 9.44772 16 10C16 10.5523 15.5523 11 15 11H1C0.447715 11 0 10.5523 0 10C0 9.44772 0.447715 9 1 9H15ZM18 3C18.5523 3 19 3.44772 19 4C19 4.55228 18.5523 5 18 5H-2C-2.55228 5 -3 4.55228 -3 4C-3 3.44772 -2.55228 3 -2 3H18Z" fill="#60CDFF"/>
</g>
<defs>
<clipPath id="clip0_43_20559">
<rect width="16" height="20" fill="white"/>
</clipPath>
</defs>
</svg>
