<svg width="20" height="16" viewBox="0 0 20 16" fill="none" xmlns="http://www.w3.org/2000/svg">
<path d="M6.75 9.5C8.28691 9.5 9.57466 10.5668 9.91312 12.0003L19.25 12C19.6642 12 20 12.3358 20 12.75C20 13.1297 19.7178 13.4435 19.3518 13.4932L19.25 13.5L9.91288 13.5007C9.57405 14.9337 8.28655 16 6.75 16C5.21345 16 3.92594 14.9337 3.58712 13.5007L0.75 13.5C0.335786 13.5 0 13.1642 0 12.75C0 12.3703 0.282154 12.0565 0.648229 12.0068L0.75 12L3.58688 12.0003C3.92534 10.5668 5.21309 9.5 6.75 9.5ZM13.25 0C14.7869 0 16.0747 1.06682 16.4131 2.50034L19.25 2.5C19.6642 2.5 20 2.83579 20 3.25C20 3.6297 19.7178 3.94349 19.3518 3.99315L19.25 4L16.4129 4.00066C16.0741 5.43368 14.7866 6.5 13.25 6.5C11.7134 6.5 10.4259 5.43368 10.0871 4.00066L0.75 4C0.335786 4 0 3.66421 0 3.25C0 2.8703 0.282154 2.55651 0.648229 2.50685L0.75 2.5L10.0869 2.50034C10.4253 1.06682 11.7131 0 13.25 0Z" fill="#60CDFF"/>
</svg>
