<svg width="18" height="18" viewBox="0 0 18 18" fill="none" xmlns="http://www.w3.org/2000/svg">
<path d="M0 2.75C0 1.23122 1.23122 0 2.75 0H12.7145C13.5764 0 14.4031 0.34241 15.0126 0.951903L17.0481 2.98744C17.6576 3.59693 18 4.42358 18 5.28553V15.25C18 16.7688 16.7688 18 15.25 18H2.75C1.23122 18 0 16.7688 0 15.25V2.75ZM2.75 1.5C2.05964 1.5 1.5 2.05964 1.5 2.75V15.25C1.5 15.9404 2.05964 16.5 2.75 16.5H3V11.25C3 10.0074 4.00736 9 5.25 9H12.75C13.9926 9 15 10.0074 15 11.25V16.5H15.25C15.9404 16.5 16.5 15.9404 16.5 15.25V5.28553C16.5 4.8214 16.3156 4.37629 15.9874 4.0481L13.9519 2.01256C13.6918 1.75246 13.3582 1.58269 13 1.52344V4.25C13 5.49264 11.9926 6.5 10.75 6.5H6.25C5.00736 6.5 4 5.49264 4 4.25V1.5H2.75ZM13.5 16.5V11.25C13.5 10.8358 13.1642 10.5 12.75 10.5H5.25C4.83579 10.5 4.5 10.8358 4.5 11.25V16.5H13.5ZM5.5 1.5V4.25C5.5 4.66421 5.83579 5 6.25 5H10.75C11.1642 5 11.5 4.66421 11.5 4.25V1.5H5.5Z" fill="#60CDFF"/>
</svg>
